<svg height="48" viewBox="0 0 450 335.94" width="48" xmlns="http://www.w3.org/2000/svg">
<path d="m0 71.04c.153-.028.394-.005.445-.093 1.374-2.352 3.553-2.599 6.001-2.527 3.917.115 7.838.051 11.758.021 1.689-.013 1.82-.072 1.739-1.782-.287-6.073-.135-12.15-.219-18.224-.051-3.679-.1-7.36-.023-11.037.103-4.929 2.468-7.79 7.172-9.198 13.766-4.122 27.585-8.069 41.186-12.728 1.127-.387 2.308-.654 3.485-.856 4.409-.756 7.554 1.577 8.08 6.022.14 1.183.055 2.394.055 3.592.002 13.998-.001 27.996.005 41.995.001 2.195.022 2.221 2.276 2.224 9.599.01 19.197.003 28.796.007.719 0 1.446-.035 2.156.058 1.87.244 3.178 1.599 3.404 3.479.057.474.036.958.036 1.438.002 13.678.008 27.356-.003 41.035-.003 3.486-1.474 4.938-4.956 4.985-.48.006-.96.001-1.44.001-9.119 0-18.238-.008-27.356.004-3.323.004-2.909-.317-2.91 2.97-.011 22.797-.008 45.594-.001 68.392 0 1.596-.013 3.188.337 4.771.936 4.224 3.448 6.624 7.705 7.493 3.961.81 7.802.111 11.63-.737 3.669-.813 7.221-2.026 10.671-3.524.293-.128.58-.272.877-.387 3.363-1.296 5.284-.074 5.427 3.548.091 2.316.022 4.64.022 6.959v32.396c0 4.617-1.91 7.508-6.217 9.18-7.152 2.776-14.447 5.099-21.913 6.901-8.99 2.172-18.082 3.348-27.323 2.715-10.777-.738-20.479-4.16-28.149-12.155-5.874-6.121-9.208-13.571-11.084-21.729-1.078-4.685-1.539-9.441-1.529-14.266.046-23.598.026-47.194.018-70.792-.002-6.479-.043-12.957-.071-19.435-.01-2.29-.017-2.298-2.393-2.303-3.839-.007-7.682-.084-11.518.029-2.328.068-4.277-.383-5.572-2.494-.106-.173-.398-.233-.604-.346v-45.602z" fill="#000"/>
<path d="m188.161 0c4.22.528 8.272 1.563 12.077 3.564 11.113 5.844 17.558 18.132 16.395 30.657-1.448 15.596-15.105 29.037-32.729 28.094-17.141-.917-28.681-14.862-29.471-29.28-.836-15.238 9.33-28.896 24.068-32.327.978-.228 2.095.062 2.94-.708h6.72z" fill="#000"/>
<path d="m317.083 74.01c3.69-1.357 7.203-2.644 10.853-3.487 20.368-4.706 39.551-1.717 57.351 9.216 17.688 10.864 29.574 26.574 37.117 45.721 3.983 10.108 6.2 20.622 6.897 31.464 1.342 20.851-2.648 40.569-12.809 58.881-8.914 16.065-21.302 28.659-37.92 36.854-12.342 6.086-25.404 8.436-39.072 7.411-6.881-.516-13.566-2.074-20.037-4.512-.722-.271-1.404-.789-2.244-.626-.506.363-.334.885-.334 1.326-.014 8.639-.016 17.276-.006 25.914.002 1.954.028 1.975 1.961 1.983 3.519.017 7.039-.008 10.558.009 3.3.016 4.827 1.448 5.074 4.734.042.557.015 1.119.015 1.679 0 12.718-.001 25.435.003 38.151 0 1.121.01 2.237-.31 3.329-.545 1.861-1.888 2.968-3.797 3.083-.478.029-.959.007-1.439.007-28.953 0-57.907.001-86.86-.002-.719 0-1.455.061-2.153-.068-1.674-.311-3.035-1.901-3.253-3.726-.066-.553-.035-1.118-.035-1.678-.002-13.356-.003-26.714.002-40.07.001-.953-.094-1.917.341-2.829.845-1.771 2.22-2.632 4.19-2.62 3.759.022 7.518.016 11.277.002 1.985-.007 1.986-.024 2.021-1.913.007-.399.001-.8.001-1.199 0-52.868.003-105.736-.006-158.604-.001-3.582.482-3.179-3.179-3.2-3.199-.019-6.399.027-9.598-.013-3.587-.044-5.043-1.541-5.046-5.175-.011-13.517-.011-27.034 0-40.55.003-3.748 1.51-5.33 5.189-5.333 23.275-.019 46.549-.019 69.824 0 3.653.005 4.788 1.232 5.424 5.841zm59.739 90.169c-.021-8.239-1.26-15.685-3.907-22.781-2.346-6.289-5.65-11.978-10.606-16.616-4.109-3.845-8.893-6.285-14.541-6.563-5.228-.257-9.869 1.603-14.009 4.739-5.029 3.811-8.625 8.785-11.144 14.478-7.364 16.646-7.682 33.574-1.499 50.625 2.262 6.237 5.732 11.767 10.702 16.261 8.65 7.822 19.684 8.163 28.784.894 4.134-3.302 7.178-7.481 9.589-12.137 4.694-9.06 6.592-18.77 6.631-28.9zm-222.497-26.835c-.886-.34-1.612.068-2.366.293-3.06.913-6.114 1.846-9.186 2.719-2.521.716-4.661-.659-5.076-3.242-.126-.784-.125-1.593-.125-2.39-.007-12.479-.006-24.958-.002-37.437 0-.719.013-1.44.075-2.156.284-3.251 1.45-4.731 4.576-5.672 11.924-3.591 23.854-7.158 35.782-10.737 10.782-3.235 21.563-6.474 32.345-9.707.611-.183 1.224-.401 1.852-.483 2.247-.294 4.131 1.14 4.416 3.385.11.867.058 1.756.058 2.636.002 43.916 0 87.832.006 131.748 0 3.457-.295 2.951 2.898 2.976 3.359.025 6.72-.022 10.079.015 2.985.033 4.573 1.621 4.578 4.63.019 13.919.02 27.838 0 41.756-.004 3.195-1.554 4.558-5.063 4.559-25.277.004-50.555.002-75.833.002-3.92 0-7.839.019-11.759-.007-3.161-.021-4.69-1.536-4.694-4.723-.019-13.839-.02-27.678.001-41.517.005-3.105 1.631-4.679 4.773-4.703 3.36-.026 6.72.005 10.079-.01 3.057-.013 2.741.321 2.748-2.639.014-5.76.004-11.519.004-17.278 0-16.479.002-32.957-.005-49.436-.004-.867.115-1.751-.161-2.582z" fill="#000"/>
</svg>